<svg width="230mm" height="302.362" viewBox="0 0 230 80" xml:space="preserve" xmlns="http://www.w3.org/2000/svg">
  <path style="fill:#6e6c7e;fill-opacity:1;stroke:none;stroke-width:0;stroke-dasharray:none" d="M66.447 177.263c-1.111-.212-2.173-.652-2.698-1.12-.512-.456-.535-.464-1.69-.588-1.461-.156-2.05-.417-2.598-1.15-.425-.567-.857-1.814-.857-2.471.001-.946.625-2.739 1.957-5.625l.668-1.446-.276-.689c-.894-2.235-.949-4.77-.174-8.063.113-.48.22-1.042.24-1.252l.034-.38-2.122-.076c-1.167-.042-2.317-.124-2.557-.183a17 17 0 0 0-1.36-.233c-2.016-.272-4.07-1.758-4.918-3.558-.8-1.697-1.133-3.605-1.032-5.907.104-2.381.718-4.748 1.547-5.969.484-.712 1.285-1.447 1.932-1.774 1.034-.522 4.013-.967 7.35-1.099l.691-.027.017-1.687c.016-1.625.028-1.71.334-2.333.309-.63 1.151-1.589 1.695-1.93.223-.139.247-.197.135-.331-.281-.339-.57-1.43-.57-2.157 0-1.421.535-2.384 1.535-2.761.794-.3 1.539-.012 2.066.8l.172.266.48-.225c.71-.331 1.116-.391 1.626-.238.666.2 1.013.706 1.061 1.55.036.612.005.724-.374 1.356-.392.654-1.091 1.4-1.655 1.764l-.26.168.648.648c.426.427.77.908 1.005 1.408.316.67.357.863.35 1.633-.003.49-.08 1.082-.174 1.349-.269.761-.288.745.978.831 1.061.073 1.255.053 2.639-.273 3.12-.735 4.712-.836 5.628-.357.91.476 1.58 1.584 1.577 2.61-.002.508-.37 1.312-.958 2.088-.432.571-.44.599-.294.948.4.957 1.72 3.351 2.303 4.177.359.509.881 1.25 1.16 1.65.287.409 2.298 2.516 4.621 4.842 2.263 2.265 4.265 4.338 4.45 4.608.399.582 1.809 3.37 1.984 3.925.22.694.554 3.284.554 4.304.001 2.07-.527 4.511-1.31 6.051-.624 1.228-2.581 3.527-3.552 4.172-2.077 1.38-6.732 2.546-10.243 2.565-.939.005-1.927-.045-2.196-.11a5 5 0 0 0-.94-.121c-.533-.003-2.04-.424-2.939-.82-.35-.155-.82-.46-1.045-.68-.24-.233-.444-.354-.495-.293-.048.057-.275.34-.505.63-.667.84-1.38 1.344-2.102 1.483-1.005.194-1.038.196-1.543.1m1.445-1.496c.373-.123.712-.322.86-.506.31-.383 1.29-2.053 1.788-3.045.78-1.557 1.384-2.557 1.583-2.62.112-.036.483-.222.824-.414 1.342-.756 2.938-1.156 4.617-1.156 1.016 0 1.066.011 1.24.279.17.259.171.305.005.653-.103.215-.26.375-.37.376-1.241.017-2.821.246-3.708.537-1.72.564-1.706.552-2.563 2.199l-.604 1.16.177.472c.098.26.274.58.39.712.637.719 4.214 1.42 6.608 1.295 1.347-.07 1.558-.098 3.37-.436 2.011-.375 3.477-.832 5.006-1.56.959-.458 2.755-2.39 3.576-3.847.863-1.533 1.27-3.602 1.184-6.026-.087-2.448-.292-3.324-1.193-5.118-.421-.838-.902-1.721-1.068-1.963-.166-.241-1.518-1.632-3.006-3.089-4.25-4.165-5.5-5.52-6.738-7.3-1.306-1.878-1.627-2.432-2.263-3.907-.265-.616-.527-1.164-.581-1.219-.061-.06-.418.032-.91.237-.444.185-1.06.363-1.367.397-.52.056-.574.039-.753-.235-.146-.223-.169-.363-.092-.58.08-.231.26-.344.92-.577 1.662-.588 2.49-1.146 3.005-2.024.511-.873.204-1.816-.709-2.172-.416-.163-.599-.17-1.523-.06-.578.069-1.638.276-2.356.46-1.553.4-2.507.479-4.19.35l-1.251-.096-.544.486c-.633.566-1.522 1.006-2.182 1.08-.581.066-1.809-.142-2.412-.409-.253-.11-.704-.431-1.004-.711l-.544-.51-1.282.117c-.705.065-1.698.147-2.207.183-1.546.11-3.988.572-4.558.86-1.235.627-2.16 2.473-2.522 5.042-.19 1.347-.078 4.103.211 5.194.351 1.322.883 2.303 1.574 2.905 1.603 1.394 2.846 1.706 7.175 1.796 2.694.056 2.812.067 2.966.287.186.266.208.633.048.793-.062.062-.155.475-.207.92a43 43 0 0 1-.389 2.33c-.377 1.966-.423 3.861-.12 5.06.22.873.905 2.497 1.353 3.21.395.63 1.311 1.484 1.906 1.778.827.41.896.59.678 1.788-.1.553-.332 1.52-.515 2.148-.835 2.858-.923 3.504-.526 3.863.268.243 1.781.785 2.24.803.186.007.614-.079.953-.19m-15.373-28.268c-.322-.408-.299-1.066.102-2.927.135-.626.128-.69-.148-1.381-.16-.399-.32-1.01-.356-1.357-.058-.555-.038-.657.167-.842.185-.166.294-.189.522-.109.24.085.335.249.568.972.17.529.344.883.443.901.09.017.556-.282 1.034-.664.479-.381.977-.75 1.108-.819.471-.248 1.114.257.957.752-.083.263-1.638 1.535-2.41 1.971-.308.175-.593.4-.632.502s-.1.764-.135 1.471c-.052 1.037-.105 1.338-.273 1.552-.274.348-.663.34-.947-.022m13.63-3.835c-.733-.343-.87-.831-.442-1.583.346-.609 1.007-.933 1.9-.933.634 0 .73.031 1.031.332.29.289.324.387.273.766-.076.57-.308.907-.869 1.26-.602.38-1.293.438-1.893.158m-3.045 30.374c.029-.105.085-.382.124-.616.04-.234.338-1.326.663-2.427.324-1.1.59-2.088.59-2.195s-.11-.245-.245-.307c-.413-.188-1.423-1.068-1.768-1.54-.18-.245-.376-.446-.437-.448-.125-.003-1.455 3.073-1.789 4.138-.296.946-.286 1.697.034 2.413.335.75.588.96 1.288 1.061 1.053.154 1.482.132 1.54-.079m2.723-37.256c.282-.187.634-.498.782-.692.393-.515.804-1.601.88-2.321.058-.555.027-.703-.266-1.283-.78-1.546-2.465-2.327-3.674-1.702-.534.275-1.203.992-1.434 1.535-.113.265-.172.773-.18 1.538-.011 1.113 0 1.165.398 1.97.343.692.477.857.817 1.002.54.231.723.265 1.503.28.57.011.732-.034 1.174-.327m-.003-7.883c.746-.417 1.51-1.153 1.8-1.731.237-.476.243-.527.078-.692-.166-.165-.213-.16-.65.071-.259.138-.67.455-.914.706-.494.508-1.222 1.573-1.222 1.787 0 .219.365.162.908-.141m-1.462-1.579c.361-.605.445-.836.39-1.08-.098-.452-.322-.605-.657-.452-.366.166-.485.531-.485 1.493 0 1.044.148 1.052.752.04m-16.273 48.826c-1.319-.428-2.483-1.479-2.817-2.541-.471-1.497.195-3.286 1.526-4.103.518-.317.6-.333 1.707-.333h1.163l.162-.341c.867-1.818 3.254-2.24 5.072-.896.43.317.904 1.073 1.147 1.825.143.44.176.797.132 1.415-.152 2.157-1.44 3.597-3.218 3.6-.65 0-.72.026-1.184.435-.777.684-1.582 1.028-2.478 1.06-.419.014-.964-.04-1.212-.12m2.111-1.496c.263-.127.504-.298.535-.378s-.113-.345-.321-.588c-.398-.465-.879-1.727-1-2.626-.06-.439-.106-.51-.363-.559-.48-.09-1.42.084-1.739.32-.496.368-.782.989-.784 1.701-.002.741.164 1.11.72 1.598.886.778 2.022.982 2.952.532m3.321-1.333c.803-.343 1.276-1.233 1.274-2.394-.002-1.342-.735-2.238-1.957-2.39-1.118-.14-1.806.49-1.97 1.804-.12.965.005 1.42.6 2.2.214.281.39.552.39.601 0 .099.674.3 1.065.318.136.006.406-.057.598-.139" transform="translate(6.092 -117.294)"/>
  <path style="fill:none;fill-opacity:1;stroke:#6e6c7e;stroke-width:1.3;stroke-linecap:round;stroke-linejoin:round;stroke-dasharray:none;stroke-opacity:1" d="M.763 176.695h213.261Z" transform="translate(6.092 -117.294)"/>
</svg>